<svg width="533" height="533" viewBox="0 0 533 533" xmlns="http://www.w3.org/2000/svg">
  <rect width="533" height="533" rx="96" fill="#0E0E10"/>
  <g transform="translate(72,232)" fill="#FFFFFF">
<path transform="scale(0.2806)" d="M623.43,46.39v30.18c0,.61.5,1.11,1.11,1.11h117.18c.61,0,1.11.5,1.11,1.11v42.78c0,.61-.5,1.11-1.11,1.11h-117.18c-.61,0-1.11.5-1.11,1.11v31.38c0,.61.5,1.11,1.11,1.11h121.68c.61,0,1.11.5,1.11,1.11v42.78c0,.61-.5,1.11-1.11,1.11h-171.78c-.61,0-1.11-.5-1.11-1.11V1.39c0-.61.5-1.11,1.11-1.11h171.78c.61,0,1.11.5,1.11,1.11v42.78c0,.61-.5,1.11-1.11,1.11h-121.68c-.61,0-1.11.5-1.11,1.11Z"/><path transform="scale(0.2806)" d="M818.92,202.02h-47.88c-.61,0-1.11-.5-1.11-1.11V2.13c0-.61.5-1.11,1.11-1.11h52.04c.35,0,.68.16.89.44l64.14,85.63s.03.04.04.06l28.15,43.56c.2.32.56.51.93.51h1.82c.64,0,1.14-.54,1.11-1.17l-2.33-40.8s0-.04,0-.06V2.13c0-.61.5-1.11,1.11-1.11h47.88c.61,0,1.11.5,1.11,1.11v198.78c0,.61-.5,1.11-1.11,1.11h-51.74c-.34,0-.67-.16-.88-.43l-67.14-87.14s-.03-.04-.05-.07l-25.15-38.17c-.21-.31-.55-.5-.93-.5h-1.83c-.64,0-1.14.54-1.11,1.17l2.03,36.3s0,.04,0,.06v87.66c0,.61-.5,1.11-1.11,1.11Z"/><path transform="scale(0.2806)" d="M1090.02,205.02c-22.6,0-41.3-3.5-56.1-10.5-14.8-7-25.9-17.05-33.3-30.15-7.4-13.1-11.1-28.55-11.1-46.35V2.13c0-.61.5-1.11,1.11-1.11h47.88c.61,0,1.11.5,1.11,1.11v111.99c0,10.6,1.45,19,4.35,25.2,2.9,6.2,8,10.6,15.3,13.2,7.3,2.6,17.55,3.9,30.75,3.9s23.7-1.3,30.9-3.9c7.2-2.6,12.25-7,15.15-13.2,2.9-6.2,4.35-14.6,4.35-25.2V2.13c0-.61.5-1.11,1.11-1.11h47.88c.61,0,1.11.5,1.11,1.11v115.89c0,17.8-3.7,33.25-11.1,46.35-7.4,13.1-18.5,23.15-33.3,30.15-14.8,7-33.5,10.5-56.1,10.5Z"/><path transform="scale(0.2806)" d="M1262.21,46.53v30.18c0,.61.5,1.11,1.11,1.11h117.18c.61,0,1.11.5,1.11,1.11v42.78c0,.61-.5,1.11-1.11,1.11h-117.18c-.61,0-1.11.5-1.11,1.11v31.38c0,.61.5,1.11,1.11,1.11h121.68c.61,0,1.11.5,1.11,1.11v42.78c0,.61-.5,1.11-1.11,1.11h-171.78c-.61,0-1.11-.5-1.11-1.11V1.53c0-.61.5-1.11,1.11-1.11h171.78c.61,0,1.11.5,1.11,1.11v42.78c0,.61-.5,1.11-1.11,1.11h-121.68c-.61,0-1.11.5-1.11,1.11Z"/><path transform="scale(0.2806)" d="M518.87.26h53.68c.8,0,1.34.82,1.02,1.55l-86.34,198.78c-.18.41-.58.67-1.02.67h-70.25c-.44,0-.84-.26-1.02-.67L328.31,1.81c-.32-.73.22-1.55,1.02-1.55h54.87c.45,0,.85.27,1.02.68l51.61,122.32,12.62,31.7c.17.42.58.7,1.03.7h1.79c.46,0,.87-.28,1.03-.71l12.32-31.69L517.85.94c.17-.41.58-.67,1.02-.67Z"/><path transform="scale(0.2806)" d="M387.13,201h-51.99c-.97,0-1.85-.58-2.23-1.48l-16.71-39.62-10.04-23.79-.84-1.99-5.3-12.56v-.66h-.28l-2.53-6-15.57-36.9-2.01-5.04-8.67-21.79-1.61-4.04c-.37-.92-1.26-1.53-2.25-1.53h0c-1,0-1.9.61-2.26,1.54l-1.56,4-10.44,26.86-15.75,36.9-1.12,2.62c-.68,1.6.49,3.38,2.23,3.38h61.54l.14.32-2,4.62-17.37,39.98c-.38.89-1.26,1.46-2.22,1.46h-61.96c-.97,0-1.85.58-2.23,1.47l-6.12,14.34-7.01,16.44c-.38.89-1.26,1.47-2.23,1.47h-50.8c-1.75,0-2.92-1.79-2.22-3.39l18.67-42.99,45.02-103.65L231.28.58l.25-.58h70.11c.96,0,1.84.57,2.22,1.46l26.38,60.52,1.27,2.91.16.36,39.29,90.15,18.39,42.21c.7,1.6-.48,3.39-2.22,3.39Z"/><path transform="scale(0.2806)" d="M73.34,123l32.63-76.45c.31-.73-.22-1.55-1.02-1.55H1.11c-.61,0-1.11-.5-1.11-1.11V1.11C0,.5.5,0,1.11,0h179.14c.8,0,1.34.82,1.02,1.55l-86.34,198.78c-.18.41-.58.67-1.02.67h-53.32"/>
  </g>
</svg>
